<svg id="Component_139_1" data-name="Component 139 – 1" xmlns="http://www.w3.org/2000/svg" width="512" height="512" viewBox="0 0 512 512">
  <rect id="Rectangle_7951" data-name="Rectangle 7951" width="512" height="512" fill="#023761"/>
  <g id="Group_13962" data-name="Group 13962" transform="translate(46 110.097)">
    <path id="Path_1" data-name="Path 1" d="M257.747,344.009c0,32.078.371,34.936-37.172,37.011v12.36c17.607-1.222,35.992-2.007,55.155-2.007,19.182,0,37.566.784,56.352,2.007V381.02c-37.578-2.074-37.17-4.932-37.17-37.011V154.955c0-12.773,0-21.4,2.346-28.4,12.514-2.476,25.434-5.766,38.721-5.766,39.134,0,63.786,19.756,63.786,62.588,0,35.01-24.651,60.532-56.73,59.3a118.414,118.414,0,0,1-25.039-3.7l4.3,15.236c5.481,1.642,14.878,2.871,25.434,2.445,48.908-2.049,91.166-35.813,91.166-87.288,0-46.531-43.048-63.823-81-63.823-22.7,1.235-45.389,2.056-68.466,2.056-23.471,0-46.172-.821-68.854-2.056v12.341c37.542,2.074,37.172,4.951,37.172,37.067V344.009Z" transform="translate(-220.575 -103.068)" fill="#fff"/>
    <path id="Path_12181" data-name="Path 12181" d="M374.035,155.5H361.514c-10.173,29.7-23.091,59.818-35.611,88.983l-52.774,124.28-19.166,42.458c-9.389,21.428-12.1,17.63-33.982,22.238v12.355c14.827-1.219,29.679-2.169,44.943-2.169s30.114.95,44.966,2.169V433.463c-14.067-2.017-33.233,0-33.233-13.692,0-8.956,21.5-57.931,26.188-69.056H413.879l23.842,60.1c3.153,7.327,2.743,13.973-2.707,16.822-8.616,5.016-19.166,5.426-29.341,5.826v12.355c17.231-1.219,34.429-2.169,52-2.169,17.629,0,34.827.95,52.059,2.169V433.463c-9.027-.4-17.232-2.967-21.547-7.046-9.764-9.905-14.852-23.468-19.938-36.631L374.035,155.5Zm-64.918,177.44L357.987,210.3l48.871,122.639Z" transform="translate(-89.722 -155.502)" fill="#fff"/>
  </g>
</svg>
